<svg width="32" height="30" viewBox="0 0 32 30" fill="none" xmlns="http://www.w3.org/2000/svg">
<path d="M0.128127 28L0.928126 22.3C2.52813 22.4333 3.82813 22.1667 4.82813 21.5C5.82813 20.8667 6.52813 19.9333 6.92813 18.7C7.29479 17.5 7.36146 16.1 7.12813 14.5L0.128128 14.5L0.128129 0.9L13.7281 0.900001L13.7281 14.5C13.7281 19.3 12.6115 22.9333 10.3781 25.4C8.14479 27.9 4.72813 28.7667 0.128127 28ZM18.2281 28L19.0281 22.3C20.6281 22.4333 21.9281 22.1667 22.9281 21.5C23.9281 20.8667 24.6281 19.9333 25.0281 18.7C25.3948 17.5 25.4615 16.1 25.2281 14.5L18.2281 14.5L18.2281 0.900001L31.8281 0.900002L31.8281 14.5C31.8281 19.3 30.7115 22.9333 28.4781 25.4C26.2448 27.9 22.8281 28.7667 18.2281 28Z" fill="#605EBC"/>
</svg>
