<svg width="32" height="30" viewBox="0 0 32 30" fill="none" xmlns="http://www.w3.org/2000/svg">
<path d="M31.8719 2L31.0719 7.7C29.4719 7.56666 28.1719 7.83333 27.1719 8.5C26.1719 9.13333 25.4719 10.0667 25.0719 11.3C24.7052 12.5 24.6385 13.9 24.8719 15.5H31.8719V29.1H18.2719V15.5C18.2719 10.7 19.3885 7.06667 21.6219 4.6C23.8552 2.1 27.2719 1.23333 31.8719 2ZM13.7719 2L12.9719 7.7C11.3719 7.56666 10.0719 7.83333 9.07188 8.5C8.07188 9.13333 7.37188 10.0667 6.97188 11.3C6.60521 12.5 6.53854 13.9 6.77188 15.5H13.7719V29.1H0.171876V15.5C0.171876 10.7 1.28854 7.06667 3.52188 4.6C5.75521 2.1 9.17188 1.23333 13.7719 2Z" fill="#605EBC"/>
</svg>
