<svg width="40" height="40" viewBox="0 0 40 40" fill="none" xmlns="http://www.w3.org/2000/svg">
<g id="Social">
<path id="Background" fill-rule="evenodd" clip-rule="evenodd" d="M20 40C31.0457 40 40 31.0457 40 20C40 8.9543 31.0457 0 20 0C8.9543 0 0 8.9543 0 20C0 31.0457 8.9543 40 20 40Z" fill="#F0F0FF"/>
<path id="Facebook Icon" fill-rule="evenodd" clip-rule="evenodd" d="M22.5447 16.7991C22.2325 16.7003 21.8734 16.6345 21.5455 16.6345C21.1396 16.6345 20.2653 16.9143 20.2653 17.4577V18.7583H22.3418V20.948H20.2653V26.9903H18.1731V20.948H17.1427V18.7583H18.1731V17.6552C18.1731 15.9924 18.8913 14.6094 20.6244 14.6094C21.2176 14.6094 22.2793 14.6423 22.857 14.8563L22.5447 16.7991Z" fill="#605EBC"/>
</g>
</svg>
