<svg width="40" height="40" viewBox="0 0 40 40" fill="none" xmlns="http://www.w3.org/2000/svg">
<g id="Social">
<path id="Background" fill-rule="evenodd" clip-rule="evenodd" d="M20 40C31.0457 40 40 31.0457 40 20C40 8.9543 31.0457 0 20 0C8.9543 0 0 8.9543 0 20C0 31.0457 8.9543 40 20 40Z" fill="#F0F0FF"/>
<path id="Vector" d="M20.2206 18.2218C19.1189 18.2218 18.2198 19.1209 18.2198 20.2227C18.2198 21.3244 19.1189 22.2235 20.2206 22.2235C21.3223 22.2235 22.2214 21.3244 22.2214 20.2227C22.2214 19.1209 21.3223 18.2218 20.2206 18.2218ZM26.2216 20.2227C26.2216 19.3941 26.2291 18.573 26.1825 17.746C26.136 16.7853 25.9169 15.9328 25.2144 15.2303C24.5104 14.5263 23.6594 14.3087 22.6987 14.2621C21.8702 14.2156 21.0492 14.2231 20.2221 14.2231C19.3936 14.2231 18.5725 14.2156 17.7455 14.2621C16.7849 14.3087 15.9323 14.5278 15.2298 15.2303C14.5259 15.9343 14.3082 16.7853 14.2617 17.746C14.2152 18.5745 14.2227 19.3956 14.2227 20.2227C14.2227 21.0497 14.2152 21.8723 14.2617 22.6993C14.3082 23.66 14.5274 24.5126 15.2298 25.215C15.9338 25.919 16.7849 26.1367 17.7455 26.1832C18.574 26.2297 19.3951 26.2222 20.2221 26.2222C21.0507 26.2222 21.8717 26.2297 22.6987 26.1832C23.6594 26.1367 24.5119 25.9175 25.2144 25.215C25.9184 24.5111 26.136 23.66 26.1825 22.6993C26.2306 21.8723 26.2216 21.0512 26.2216 20.2227ZM20.2206 23.3012C18.517 23.3012 17.1421 21.9263 17.1421 20.2227C17.1421 18.519 18.517 17.1441 20.2206 17.1441C21.9242 17.1441 23.2991 18.519 23.2991 20.2227C23.2991 21.9263 21.9242 23.3012 20.2206 23.3012ZM23.4252 17.737C23.0275 17.737 22.7062 17.4158 22.7062 17.018C22.7062 16.6202 23.0275 16.299 23.4252 16.299C23.823 16.299 24.1442 16.6202 24.1442 17.018C24.1443 17.1124 24.1258 17.206 24.0897 17.2933C24.0536 17.3806 24.0007 17.4599 23.9339 17.5267C23.8671 17.5934 23.7878 17.6464 23.7005 17.6825C23.6132 17.7186 23.5197 17.7371 23.4252 17.737Z" fill="#605EBC"/>
</g>
</svg>
