<svg width="40" height="40" viewBox="0 0 40 40" fill="none" xmlns="http://www.w3.org/2000/svg">
<path fill-rule="evenodd" clip-rule="evenodd" d="M20 40C31.0457 40 40 31.0457 40 20C40 8.9543 31.0457 0 20 0C8.9543 0 0 8.9543 0 20C0 31.0457 8.9543 40 20 40Z" fill="#F0F0FF"/>
<path fill-rule="evenodd" clip-rule="evenodd" d="M18.4976 17.6056H20.6641V18.7619C20.9762 18.0969 21.7766 17.4994 22.9788 17.4994C25.2836 17.4994 25.8307 18.8231 25.8307 21.2519V25.75H23.4974V21.805C23.4974 20.4219 23.1853 19.6419 22.3908 19.6419C21.2889 19.6419 20.831 20.4825 20.831 21.8044V25.75H18.4976V17.6056ZM14.4966 25.6438H16.8299V17.4994H14.4966V25.6438ZM17.1641 14.8438C17.1642 15.0533 17.1254 15.2608 17.05 15.4541C16.9746 15.6475 16.8641 15.8228 16.7249 15.97C16.4428 16.2704 16.061 16.4385 15.6632 16.4375C15.2662 16.4372 14.8852 16.2695 14.6027 15.9706C14.464 15.8229 14.3539 15.6474 14.2786 15.454C14.2033 15.2606 14.1644 15.0533 14.1641 14.8438C14.1641 14.4206 14.3216 14.0156 14.6033 13.7169C14.8856 13.4176 15.2667 13.2498 15.6638 13.25C16.0616 13.25 16.4431 13.4181 16.7249 13.7169C17.0061 14.0156 17.1641 14.4206 17.1641 14.8438Z" fill="#605EBC"/>
</svg>
