<svg width="200" height="200" viewBox="0 0 200 200" fill="none" xmlns="http://www.w3.org/2000/svg">
<g id="Layer_1" clip-path="url(#clip0_33_988)">
<path id="Vector" d="M0 175.862V151.724H48.2759V200H0V175.862ZM41.3793 175.862V158.621H6.89655V193.103H41.3793V175.862ZM13.7931 175.862V165.517H34.4828V186.207H13.7931V175.862ZM62.069 196.552V193.103H55.1724V179.31H62.069V158.621H68.9655V151.724H55.1724V144.828H27.5862V137.931H34.4828V131.034H20.6897V144.828H13.7931V137.931H0V131.034H13.7931V117.241H6.89655V124.138H0V110.345H13.7931V117.241H20.6897V124.138H27.5862V117.241H34.4828V124.138H48.2759V117.241H41.3793V110.345H20.6897V103.448H41.3793V96.5517H20.6897V89.6552H13.7931V96.5517H0V75.8621H6.89655V82.7586H48.2759V75.8621H41.3793V68.9655H27.5862V75.8621H20.6897V68.9655H6.89655V55.1724H20.6897V68.9655H27.5862V62.069H41.3793V55.1724H48.2759V62.069H41.3793V68.9655H48.2759V75.8621H55.1724V62.069H62.069V55.1724H55.1724V34.4828H68.9655V41.3793H75.8621V48.2759H68.9655V55.1724H75.8621V96.5517H62.069V89.6552H55.1724V96.5517H48.2759V103.448H41.3793V110.345H48.2759V117.241H55.1724V124.138H68.9655V117.241H62.069V110.345H55.1724V103.448H68.9655V117.241H75.8621V103.448H82.7586V117.241H89.6552V96.5517H96.5517V89.6552H103.448V96.5517H96.5517V103.448H103.448V110.345H124.138V103.448H117.241V96.5517H110.345V82.7586H103.448V75.8621H110.345V68.9655H117.241V62.069H110.345V55.1724H103.448V68.9655H96.5517V62.069H89.6552V68.9655H82.7586V62.069H89.6552V55.1724H82.7586V34.4828H75.8621V27.5862H82.7586V34.4828H89.6552V6.89655H96.5517V20.6897H110.345V13.7931H103.448V0H117.241V6.89655H110.345V13.7931H124.138V6.89655H131.034V0H144.828V20.6897H131.034V13.7931H124.138V27.5862H131.034V48.2759H137.931V41.3793H144.828V75.8621H158.621V68.9655H151.724V55.1724H165.517V75.8621H179.31V68.9655H172.414V55.1724H179.31V68.9655H186.207V62.069H200V75.8621H193.103V68.9655H186.207V75.8621H179.31V96.5517H186.207V103.448H179.31V110.345H165.517V117.241H158.621V124.138H144.828V117.241H137.931V110.345H131.034V124.138H137.931V131.034H158.621V137.931H172.414V131.034H165.517V124.138H172.414V117.241H179.31V124.138H186.207V131.034H193.103V117.241H186.207V110.345H200V131.034H193.103V144.828H200V158.621H193.103V179.31H200V186.207H179.31V200H158.621V193.103H172.414V186.207H158.621V172.414H151.724V186.207H144.828V193.103H151.724V200H137.931V179.31H131.034V193.103H124.138V186.207H117.241V158.621H124.138V179.31H131.034V158.621H137.931V144.828H131.034V137.931H124.138V131.034H131.034V124.138H124.138V117.241H117.241V144.828H124.138V151.724H110.345V165.517H103.448V179.31H110.345V186.207H103.448V193.103H117.241V200H103.448V193.103H96.5517V186.207H89.6552V200H62.069V196.552ZM82.7586 186.207V179.31H89.6552V158.621H75.8621V165.517H82.7586V172.414H68.9655V179.31H62.069V186.207H68.9655V193.103H82.7586V186.207ZM179.31 179.31V172.414H186.207V158.621H193.103V151.724H186.207V131.034H179.31V151.724H186.207V158.621H179.31V165.517H172.414V186.207H179.31V179.31ZM144.828 175.862V172.414H137.931V179.31H144.828V175.862ZM103.448 162.069V158.621H96.5517V165.517H103.448V162.069ZM165.517 155.172V144.828H144.828V165.517H165.517V155.172ZM151.724 155.172V151.724H158.621V158.621H151.724V155.172ZM96.5517 148.276V144.828H110.345V137.931H96.5517V131.034H89.6552V137.931H96.5517V144.828H82.7586V137.931H75.8621V144.828H68.9655V137.931H62.069V131.034H55.1724V124.138H48.2759V131.034H41.3793V137.931H48.2759V131.034H55.1724V137.931H62.069V144.828H68.9655V151.724H96.5517V148.276ZM75.8621 127.586V124.138H68.9655V131.034H75.8621V127.586ZM110.345 124.138V117.241H96.5517V124.138H103.448V131.034H110.345V124.138ZM151.724 113.793V110.345H144.828V117.241H151.724V113.793ZM165.517 106.897V103.448H172.414V82.7586H165.517V89.6552H158.621V96.5517H151.724V89.6552H137.931V82.7586H131.034V75.8621H137.931V55.1724H131.034V48.2759H124.138V41.3793H117.241V48.2759H110.345V27.5862H117.241V34.4828H124.138V27.5862H117.241V20.6897H110.345V27.5862H103.448V48.2759H110.345V55.1724H117.241V48.2759H124.138V68.9655H117.241V75.8621H110.345V82.7586H117.241V96.5517H124.138V89.6552H137.931V96.5517H144.828V103.448H158.621V110.345H165.517V106.897ZM158.621 100V96.5517H165.517V103.448H158.621V100ZM48.2759 93.1034V89.6552H55.1724V82.7586H48.2759V89.6552H41.3793V96.5517H48.2759V93.1034ZM68.9655 79.3103V75.8621H62.069V82.7586H68.9655V79.3103ZM68.9655 44.8276V41.3793H62.069V48.2759H68.9655V44.8276ZM96.5517 41.3793V34.4828H89.6552V48.2759H96.5517V41.3793ZM137.931 10.3448V6.89655H131.034V13.7931H137.931V10.3448ZM193.103 196.552V193.103H200V200H193.103V196.552ZM193.103 96.5517V89.6552H186.207V82.7586H193.103V89.6552H200V103.448H193.103V96.5517ZM0 24.1379V0H48.2759V48.2759H0V24.1379ZM41.3793 24.1379V6.89655H6.89655V41.3793H41.3793V24.1379ZM13.7931 24.1379V13.7931H34.4828V34.4828H13.7931V24.1379ZM151.724 24.1379V0H200V48.2759H151.724V24.1379ZM193.103 24.1379V6.89655H158.621V41.3793H193.103V24.1379ZM165.517 24.1379V13.7931H186.207V34.4828H165.517V24.1379ZM55.1724 24.1379V20.6897H62.069V27.5862H55.1724V24.1379ZM68.9655 17.2414V13.7931H62.069V0H68.9655V6.89655H75.8621V0H82.7586V6.89655H75.8621V20.6897H68.9655V17.2414Z" fill="#605EBC"/>
</g>
<defs>
<clipPath id="clip0_33_988">
<rect width="200" height="200" fill="white"/>
</clipPath>
</defs>
</svg>
