<svg width="120" height="119" viewBox="0 0 120 119" fill="none" xmlns="http://www.w3.org/2000/svg">
<g id="Group 1171276211">
<g id="Rectangle 39600" filter="url(#filter0_d_49_40)">
<rect x="20" y="8" width="80" height="80" rx="13.7143" fill="white"/>
</g>
<g id="Group 1000004005">
<g id="Group 1000004004">
<path id="Vector (Stroke)" fill-rule="evenodd" clip-rule="evenodd" d="M60.0064 23.002C60.8877 23.002 61.6021 23.7164 61.6021 24.5977V30.9807C61.6021 31.862 60.8877 32.5764 60.0064 32.5764C59.1251 32.5764 58.4106 31.862 58.4106 30.9807V24.5977C58.4106 23.7164 59.1251 23.002 60.0064 23.002ZM60.0064 63.4275C60.8877 63.4275 61.6021 64.1419 61.6021 65.0232V71.4062C61.6021 72.2875 60.8877 73.002 60.0064 73.002C59.1251 73.002 58.4106 72.2875 58.4106 71.4062V65.0232C58.4106 64.1419 59.1251 63.4275 60.0064 63.4275Z" fill="#10C7E4"/>
<path id="Vector (Stroke)_2" fill-rule="evenodd" clip-rule="evenodd" d="M85.0073 48.0015C85.0073 48.8828 84.2929 49.5973 83.4116 49.5973L77.0286 49.5973C76.1473 49.5973 75.4329 48.8828 75.4329 48.0015C75.4329 47.1202 76.1473 46.4058 77.0286 46.4058L83.4116 46.4058C84.2929 46.4058 85.0073 47.1202 85.0073 48.0015ZM44.5818 48.0015C44.5818 48.8828 43.8674 49.5972 42.986 49.5972L36.6031 49.5972C35.7218 49.5972 35.0073 48.8828 35.0073 48.0015C35.0073 47.1202 35.7218 46.4058 36.6031 46.4058L42.986 46.4058C43.8674 46.4058 44.5818 47.1202 44.5818 48.0015Z" fill="#10C7E4"/>
<path id="Vector (Stroke)_3" fill-rule="evenodd" clip-rule="evenodd" d="M77.686 30.3271C78.3092 30.9503 78.3092 31.9606 77.686 32.5838L73.1725 37.0973C72.5494 37.7204 71.539 37.7204 70.9158 37.0973C70.2926 36.4741 70.2926 35.4637 70.9158 34.8405L75.4293 30.3271C76.0524 29.7039 77.0628 29.7039 77.686 30.3271ZM49.1008 58.9123C49.724 59.5354 49.724 60.5458 49.1008 61.169L44.5874 65.6824C43.9642 66.3056 42.9538 66.3056 42.3306 65.6824C41.7075 65.0593 41.7075 64.0489 42.3306 63.4257L46.8441 58.9123C47.4673 58.2891 48.4776 58.2891 49.1008 58.9123Z" fill="#10C7E4"/>
<path id="Vector (Stroke)_4" fill-rule="evenodd" clip-rule="evenodd" d="M77.6802 65.6787C77.0571 66.3018 76.0467 66.3018 75.4235 65.6787L70.9101 61.1652C70.2869 60.542 70.2869 59.5317 70.9101 58.9085C71.5332 58.2853 72.5436 58.2853 73.1668 58.9085L77.6802 63.4219C78.3034 64.0451 78.3034 65.0555 77.6802 65.6787ZM49.0951 37.0935C48.4719 37.7167 47.4615 37.7167 46.8383 37.0935L42.3249 32.58C41.7017 31.9569 41.7017 30.9465 42.3249 30.3233C42.9481 29.7001 43.9584 29.7001 44.5816 30.3233L49.0951 34.8368C49.7182 35.4599 49.7182 36.4703 49.0951 37.0935Z" fill="#10C7E4"/>
<circle id="Ellipse 3027" cx="60.5418" cy="48.0028" r="12.766" fill="#605EBD"/>
<path id="Vector 429 (Stroke)" fill-rule="evenodd" clip-rule="evenodd" d="M66.3581 44.4313C67.1537 45.296 67.0977 46.642 66.2329 47.4376L60.7354 52.4953C59.1069 53.9936 56.6018 53.9936 54.9732 52.4953L52.7135 50.4163C51.8487 49.6208 51.7926 48.2748 52.5882 47.41C53.3838 46.5452 54.7298 46.4891 55.5946 47.2847L57.8543 49.3637L63.3518 44.306C64.2166 43.5104 65.5626 43.5665 66.3581 44.4313Z" fill="white"/>
</g>
</g>
</g>
<defs>
<filter id="filter0_d_49_40" x="0.571429" y="0" width="118.857" height="118.857" filterUnits="userSpaceOnUse" color-interpolation-filters="sRGB">
<feFlood flood-opacity="0" result="BackgroundImageFix"/>
<feColorMatrix in="SourceAlpha" type="matrix" values="0 0 0 0 0 0 0 0 0 0 0 0 0 0 0 0 0 0 127 0" result="hardAlpha"/>
<feMorphology radius="2.28571" operator="dilate" in="SourceAlpha" result="effect1_dropShadow_49_40"/>
<feOffset dy="11.4286"/>
<feGaussianBlur stdDeviation="8.57143"/>
<feComposite in2="hardAlpha" operator="out"/>
<feColorMatrix type="matrix" values="0 0 0 0 0 0 0 0 0 0 0 0 0 0 0 0 0 0 0.08 0"/>
<feBlend mode="normal" in2="BackgroundImageFix" result="effect1_dropShadow_49_40"/>
<feBlend mode="normal" in="SourceGraphic" in2="effect1_dropShadow_49_40" result="shape"/>
</filter>
</defs>
</svg>
