<svg width="120" height="119" viewBox="0 0 120 119" fill="none" xmlns="http://www.w3.org/2000/svg">
<g id="Group 1171276212">
<g id="Rectangle 39600" filter="url(#filter0_d_49_84)">
<rect x="20" y="8" width="80" height="80" rx="13.7143" fill="white"/>
</g>
<g id="Group 1171276343">
<rect id="Rectangle 39589" x="41.2378" y="61.499" width="31.9298" height="6.5" rx="1.66667" fill="#605EBD"/>
<rect id="Rectangle 39590" x="41.2378" y="54.998" width="31.9298" height="6.5" rx="1.66667" fill="#605EBD"/>
<ellipse id="Ellipse 3027" cx="62.6812" cy="39.8327" rx="15.9649" ry="15.1667" fill="#605EBD"/>
<path id="&#226;&#130;&#185;" d="M57.5 33.3325H60.7694C60.8991 33.3325 61.0596 33.3385 61.251 33.3506C61.4424 33.3566 61.6215 33.3746 61.7882 33.4047C62.5353 33.5191 63.1558 33.7689 63.6498 34.154C64.1499 34.5332 64.5235 35.0117 64.7705 35.5895C65.0174 36.1612 65.1409 36.7962 65.1409 37.4943C65.1409 38.5115 64.8909 39.3781 64.3907 40.0943C63.8906 40.8045 63.1404 41.28 62.1401 41.5207C61.8993 41.5809 61.677 41.62 61.4733 41.6381C61.2695 41.6561 61.0287 41.6652 60.7509 41.6652H57.5V39.8777H60.6953C60.8126 39.8777 60.9454 39.8716 61.0936 39.8596C61.2479 39.8476 61.393 39.8265 61.5289 39.7964C61.9302 39.7001 62.2482 39.5316 62.4828 39.2909C62.7236 39.0501 62.8965 38.7703 63.0015 38.4513C63.1126 38.1323 63.1682 37.8133 63.1682 37.4943C63.1682 37.1753 63.1126 36.8564 63.0015 36.5374C62.8965 36.2184 62.7236 35.9385 62.4828 35.6978C62.2482 35.4571 61.9302 35.2915 61.5289 35.2013C61.393 35.1652 61.2479 35.1411 61.0936 35.129C60.9454 35.117 60.8126 35.111 60.6953 35.111H57.5V33.3325ZM57.5 41.6652L59.5746 41.1235L65.604 46.3325H62.8625L57.5 41.6652ZM57.5463 38.2346V36.7631H66.6228V38.2346H57.5463ZM60.5471 34.804V33.3325H66.5672V34.804H60.5471Z" fill="white"/>
<path id="Star 5" d="M76.7159 27.2606C76.7645 27.1045 76.9855 27.1045 77.0341 27.2606L77.691 29.3684C78.0169 30.4142 78.8358 31.2331 79.8816 31.559L81.9894 32.2159C82.1455 32.2645 82.1455 32.4855 81.9894 32.5341L79.8816 33.191C78.8358 33.5169 78.0169 34.3358 77.691 35.3816L77.0341 37.4894C76.9855 37.6455 76.7645 37.6455 76.7159 37.4894L76.059 35.3816C75.7331 34.3358 74.9142 33.5169 73.8684 33.191L71.7606 32.5341C71.6045 32.4855 71.6045 32.2645 71.7606 32.2159L73.8684 31.559C74.9142 31.2331 75.7331 30.4142 76.059 29.3684L76.7159 27.2606Z" fill="#10C7E4"/>
<path id="Star 6" d="M38.5909 47.2606C38.6395 47.1045 38.8605 47.1045 38.9091 47.2606L39.4175 48.8919C39.7434 49.9377 40.5623 50.7566 41.6081 51.0825L43.2394 51.5909C43.3955 51.6395 43.3955 51.8605 43.2394 51.9091L41.6081 52.4175C40.5623 52.7434 39.7434 53.5623 39.4175 54.6081L38.9091 56.2394C38.8605 56.3955 38.6395 56.3955 38.5909 56.2394L38.0825 54.6081C37.7566 53.5623 36.9377 52.7434 35.8919 52.4175L34.2606 51.9091C34.1045 51.8605 34.1045 51.6395 34.2606 51.5909L35.8919 51.0825C36.9377 50.7566 37.7566 49.9377 38.0825 48.8919L38.5909 47.2606Z" fill="#10C7E4"/>
</g>
</g>
<defs>
<filter id="filter0_d_49_84" x="0.571429" y="0" width="118.857" height="118.857" filterUnits="userSpaceOnUse" color-interpolation-filters="sRGB">
<feFlood flood-opacity="0" result="BackgroundImageFix"/>
<feColorMatrix in="SourceAlpha" type="matrix" values="0 0 0 0 0 0 0 0 0 0 0 0 0 0 0 0 0 0 127 0" result="hardAlpha"/>
<feMorphology radius="2.28571" operator="dilate" in="SourceAlpha" result="effect1_dropShadow_49_84"/>
<feOffset dy="11.4286"/>
<feGaussianBlur stdDeviation="8.57143"/>
<feComposite in2="hardAlpha" operator="out"/>
<feColorMatrix type="matrix" values="0 0 0 0 0 0 0 0 0 0 0 0 0 0 0 0 0 0 0.08 0"/>
<feBlend mode="normal" in2="BackgroundImageFix" result="effect1_dropShadow_49_84"/>
<feBlend mode="normal" in="SourceGraphic" in2="effect1_dropShadow_49_84" result="shape"/>
</filter>
</defs>
</svg>
