<svg width="40" height="40" viewBox="0 0 40 40" fill="none" xmlns="http://www.w3.org/2000/svg">
<g id="Group 1171276482">
<g id="Social">
<path id="Background" fill-rule="evenodd" clip-rule="evenodd" d="M20 40C31.0457 40 40 31.0457 40 20C40 8.9543 31.0457 0 20 0C8.9543 0 0 8.9543 0 20C0 31.0457 8.9543 40 20 40Z" fill="#F0F0FF"/>
</g>
<path id="Vector" d="M25.1378 24.7756L21.1171 19.0674L25.5745 14H24.5547L23.6821 14.9879L20.6627 18.4223L17.7861 14.3385L17.5478 14H14.0141L14.8762 15.2244L18.7008 20.6541L14 26H15.0198L19.1545 21.2992L22.2272 25.6623L22.4655 26H26L25.1378 24.7756ZM22.8858 25.2189L19.6932 20.6867L19.2389 20.0416L15.5349 14.7811H17.1282L20.124 19.0349L20.5784 19.68L24.4792 25.2189H22.8858Z" fill="#605EBC"/>
</g>
</svg>
