<svg width="40" height="40" viewBox="0 0 40 40" fill="none" xmlns="http://www.w3.org/2000/svg">
<path fill-rule="evenodd" clip-rule="evenodd" d="M20 40C31.0457 40 40 31.0457 40 20C40 8.9543 31.0457 0 20 0C8.9543 0 0 8.9543 0 20C0 31.0457 8.9543 40 20 40Z" fill="#F0F0FF"/>
<path d="M18.75 23.125L23.2912 20.5L18.75 17.875V23.125ZM28.865 16.2738C28.9788 16.685 29.0575 17.2362 29.11 17.9362C29.1712 18.6362 29.1975 19.24 29.1975 19.765L29.25 20.5C29.25 22.4163 29.11 23.825 28.865 24.7262C28.6462 25.5138 28.1388 26.0212 27.3512 26.24C26.94 26.3537 26.1875 26.4325 25.0325 26.485C23.895 26.5463 22.8538 26.5725 21.8913 26.5725L20.5 26.625C16.8337 26.625 14.55 26.485 13.6488 26.24C12.8613 26.0212 12.3538 25.5138 12.135 24.7262C12.0213 24.315 11.9425 23.7638 11.89 23.0638C11.8288 22.3638 11.8025 21.76 11.8025 21.235L11.75 20.5C11.75 18.5837 11.89 17.175 12.135 16.2738C12.3538 15.4863 12.8613 14.9788 13.6488 14.76C14.06 14.6463 14.8125 14.5675 15.9675 14.515C17.105 14.4537 18.1462 14.4275 19.1087 14.4275L20.5 14.375C24.1663 14.375 26.45 14.515 27.3512 14.76C28.1388 14.9788 28.6462 15.4863 28.865 16.2738Z" fill="#605EBC"/>
</svg>
